# xmcd
#
# Track frame offsets: 
#        150
#        11755
#        34825
#        51517
#        71632
#        90722
#        106737
#        121227
#        148432
#        168497
#        187265
#        216637
#        245872
#
# Disc length: 4035 seconds
#
# Revision: 0
# Processed by: cddbd v1.5.2PL0 Copyright (c) Steve Scherf et al.
# Submitted via: ExactAudioCopy v0.95b4
#
DISCID=d20fc10d
DTITLE=The Allman Brothers Band - Live USA - CD 2
DYEAR=1900
DGENRE=Southern Rock
TTITLE0=Don´t Want You No More
TTITLE1=It´s Not My Cross To Bear
TTITLE2=Can´t Take It With You
TTITLE3=Blues Sky
TTITLE4=I Need Your Love So Bad
TTITLE5=Crazy Love
TTITLE6=Midnight Rider
TTITLE7=Will The Circle Be Unbroken
TTITLE8=Right To Be Wrong
TTITLE9=Angeline
TTITLE10=Instrumental Jam
TTITLE11=You Don´t Love Me
TTITLE12=Pegasus
EXTD=
EXTT0=
EXTT1=
EXTT2=
EXTT3=
EXTT4=
EXTT5=
EXTT6=
EXTT7=
EXTT8=
EXTT9=
EXTT10=
EXTT11=
EXTT12=
PLAYORDER=
